<svg width="88" height="46" viewBox="0 0 88 46" fill="none" xmlns="http://www.w3.org/2000/svg">
<path d="M7.30167 14.575C12.4808 14.575 16.6127 12.8487 16.6127 7.92429C16.6127 4.01875 12.9336 1.92447 8.0941 1.92447H1.89617C0.849031 1.92447 0 2.06598 0 2.99991C0 4.07535 1.35845 4.13195 1.35845 5.3772V17.7447C1.35845 18.9617 0.0283011 19.0183 0.0283011 20.0937C0.0283011 21.056 0.877332 21.1692 1.89617 21.1692H5.99982C7.01866 21.1692 7.86769 21.056 7.86769 20.0937C7.86769 19.0183 6.53754 18.9617 6.53754 17.7447V14.575H7.30167ZM7.35827 4.35836H7.69788C9.62235 4.35836 11.0091 6.16962 11.0091 8.54691C11.0091 11.1223 9.28274 12.226 7.10356 12.226H6.53754V5.5187C6.53754 4.86778 6.62244 4.35836 7.35827 4.35836Z" fill="#383838"/>
<path d="M21.4758 21.5654C24.0229 21.5654 25.4946 20.6032 26.4002 18.9617H26.5417V19.2164C26.5417 20.49 27.6455 21.5937 29.6265 21.5937C31.2963 21.5937 32.2868 20.9711 32.2868 20.2069C32.2868 19.0183 31.0416 19.6409 31.0416 17.9146V13.5562C30.9567 9.11293 29.202 6.59414 24.4191 6.59414C19.9476 6.59414 17.9665 8.66012 17.9665 10.1601C17.9665 11.4902 18.9287 12.1411 19.9476 12.1411C21.1079 12.1411 21.8438 11.5185 22.3249 10.0186C22.6928 9.11293 23.3437 8.37711 24.3342 8.37711C25.3531 8.37711 25.8059 9.08463 25.8059 9.99027C25.8059 11.0091 25.2965 11.6317 23.9946 12.2826C21.4192 13.726 17.3722 14.4618 17.3722 17.8297C17.3722 19.6409 18.7023 21.5654 21.4758 21.5654ZM23.7682 18.424C22.8909 18.424 22.2117 17.8297 22.2117 16.8108C22.2117 15.7071 23.1739 14.9429 24.7022 14.3486L26.0889 13.8109V15.5373C26.0889 17.5183 24.9852 18.424 23.7682 18.424Z" fill="#383838"/>
<path d="M43.3351 21.5654C47.3255 21.5654 49.7311 18.3108 49.7311 13.8958C49.7311 9.14123 46.7878 6.59414 43.5615 6.59414C42.0898 6.59414 40.7314 7.10356 39.6276 8.2356V1.52826C39.6276 0.650924 39.0616 0 37.8447 0C36.2881 0 32.9486 0.933934 32.9486 1.95277C32.9486 2.51879 33.3165 2.6886 33.7976 3.02821C34.2504 3.33952 34.6184 3.79234 34.6184 4.86778L34.6467 17.9429C34.6467 19.0749 33.4014 19.1032 33.4014 20.1786C33.4014 21.1126 34.2504 21.1692 35.2693 21.1692H37.6183C38.5522 21.1692 38.8635 21.056 38.8635 20.122V19.839H39.005C39.9389 20.8296 41.2408 21.5654 43.3351 21.5654ZM42.7407 19.1881C41.071 19.1881 39.6559 16.7259 39.6559 13.6128V12.4525C39.6559 10.7261 40.3918 9.56575 41.6087 9.59405C43.6181 9.59405 44.7784 13.4147 44.7501 16.1033C44.7501 18.2825 43.9011 19.1881 42.7407 19.1881Z" fill="#383838"/>
<path d="M52.8705 21.1692H56.9742C57.9364 21.1692 58.7005 21.056 58.7005 20.1786C58.7005 19.2164 57.4553 19.1598 57.4553 18.0278V1.55656C57.4553 0.679225 56.8893 0.0283001 55.6723 0.0283001C54.2573 0.0283001 50.7763 0.933934 50.7763 1.95277C50.7763 2.54709 51.1159 2.6886 51.6253 3.05651C52.0498 3.39612 52.4177 3.73574 52.4177 4.83948V18.0278C52.4177 19.1598 51.1725 19.2164 51.1725 20.1786C51.1725 21.056 51.9366 21.1692 52.8705 21.1692Z" fill="#383838"/>
<path d="M68.0534 21.5937C72.4966 21.5937 75.9777 18.5655 76.006 13.8392C75.9777 9.11293 72.5249 6.59414 68.1949 6.59414C63.8365 6.59414 60.1008 9.62235 60.0725 14.3486C60.1008 19.0183 63.6384 21.5937 68.0534 21.5937ZM68.8175 19.3013C66.4685 19.3013 65.3082 14.6033 65.3082 11.7449C65.3082 9.93366 65.9308 8.88652 67.2892 8.88652C69.6099 8.88652 70.7703 13.6128 70.7703 16.3863C70.7703 18.2542 70.091 19.3013 68.8175 19.3013Z" fill="#383838"/>
<path d="M32.5556 44.7534H39.8573C44.9798 44.7534 49.2815 41.4705 49.2815 34.9895C49.2815 28.9331 44.81 25.5087 39.5743 25.5087H32.5556C31.5085 25.5087 30.6595 25.6502 30.6595 26.5841C30.6595 27.6596 32.0179 27.7162 32.0179 28.9614V41.329C32.0179 42.5459 30.6595 42.6025 30.6595 43.6779C30.6595 44.6402 31.5085 44.7534 32.5556 44.7534ZM38.329 42.3478C37.48 42.3478 37.197 41.9233 37.197 40.5365V29.7255C37.197 28.3671 37.3668 27.9426 38.1309 27.9426H38.6403C41.1308 27.9426 43.7062 31.0557 43.7062 35.8952C43.7062 40.678 41.612 42.3478 39.2347 42.3478H38.329Z" fill="#383838"/>
<path d="M54.6713 28.7067C56.4826 28.7067 57.6995 27.6313 57.6995 25.9898C57.6995 24.3483 56.4826 23.3012 54.6713 23.3012C52.8601 23.3012 51.6148 24.3483 51.6148 25.9898C51.6148 27.6313 52.8601 28.7067 54.6713 28.7067ZM52.8035 44.7534H56.9071C57.841 44.7534 58.6335 44.6402 58.6335 43.7628C58.6335 42.8006 57.3882 42.744 57.3882 41.612V31.7349C57.3599 30.8576 56.7939 30.2066 55.5204 30.2066C54.0204 30.2066 50.6809 31.1123 50.6809 32.1311C50.6809 32.7254 51.0488 32.8669 51.5582 33.2349C51.9827 33.5745 52.3223 33.9141 52.3223 35.0178V41.612C52.3223 42.744 51.0771 42.8006 51.0771 43.7628C51.0771 44.6402 51.8695 44.7534 52.8035 44.7534Z" fill="#383838"/>
<path d="M64.0748 45.1496C66.6219 45.1496 68.0935 44.1874 68.9992 42.5459H69.1407V42.8006C69.1407 44.0742 70.2444 45.1779 72.2255 45.1779C73.8952 45.1779 74.8858 44.5553 74.8858 43.7911C74.8858 42.6025 73.6405 43.2251 73.6405 41.4988V37.1404C73.5556 32.6971 71.801 30.1783 67.0181 30.1783C62.5465 30.1783 60.5655 32.2443 60.5655 33.7443C60.5655 35.0744 61.5277 35.7253 62.5465 35.7253C63.7069 35.7253 64.4427 35.1027 64.9238 33.6028C65.2917 32.6971 65.9427 31.9613 66.9332 31.9613C67.952 31.9613 68.4048 32.6688 68.4048 33.5745C68.4048 34.5933 67.8954 35.2159 66.5936 35.8669C64.0182 37.3102 59.9711 38.046 59.9711 41.4139C59.9711 43.2251 61.3013 45.1496 64.0748 45.1496ZM66.3672 42.0082C65.4898 42.0082 64.8106 41.4139 64.8106 40.395C64.8106 39.2913 65.7729 38.5272 67.3011 37.9328L68.6879 37.3951V39.1215C68.6879 41.1025 67.5841 42.0082 66.3672 42.0082Z" fill="#383838"/>
<path d="M81.9153 45.1496C85.651 45.1496 87.9717 43.31 87.9717 40.7346C87.9717 38.3573 86.3302 37.197 84.0096 36.0933C81.2361 34.7914 80.9813 34.3103 80.9813 33.4613C80.9813 32.8669 81.4342 32.4141 82.1983 32.4141C84.2926 32.4141 84.1511 35.0744 86.5283 35.0744C87.3491 35.0744 88 34.3386 88 33.4896C88 31.7349 85.9057 30.1783 82.1983 30.1783C79.0286 30.1783 76.3966 31.7066 76.3966 34.565C76.3966 36.9423 77.9531 38.046 80.3587 39.1215C82.4247 40.0554 83.2454 40.7346 83.2454 41.7252C83.2454 42.5176 82.736 42.9421 81.8587 42.9421C79.9342 42.9421 79.8776 39.9988 77.5003 39.9988C76.6513 39.9988 75.9721 40.7063 75.9721 41.5837C75.9721 43.2817 77.9531 45.1496 81.9153 45.1496Z" fill="#383838"/>
</svg>
